PathFileType	4	(X/Y/Z)	walk-thru1-4-TP.trc
DataRate	CameraRate	NumFrames	NumMarkers	Units	OrigDataRate	OrigDataStartFrame	OrigNumFrames
120.00	120.00	       4	60	mm	120.00	449	       512
Frame#	Time	Top.Head			Front.Head			Rear.Head			Jaw			C7			R.Clavicle			L.Clavicle			R.Shoulder			L.Shoulder			R.Scapula			L.Scapula			R.Scap.Inf			R.Biceps.Lateral			R.Elbow			R.Elbow.Medial			R.Forearm			R.Ulna			R.Radius			R.Wrist			R.Thumb.M1			R.Thumb.M2			R.Thumb.M3			R.Finger3.M1			R.Finger3.M2			R.Finger3.M3			L.Biceps.Lateral			L.Elbow			L.Elbow.Medial			L.Forearm			L.Ulna			L.Radius			L.Wrist			L.Thumb.M1			L.Thumb.M2			L.Thumb.M3			L.Finger3.M1			L.Finger3.M2			L.Finger3.M3			V.Sacral			R.ASIS			L.ASIS			R.Thigh			R.Thigh.Front			R.Knee			R.Knee.Medial			R.Shank			R.Ankle			R.Ankle.Medial			R.Heel			R.Toe			R.MedFoot			L.Thigh			L.Knee			L.Knee.Medial			L.Shank			L.Ankle			L.Ankle.Medial			L.Heel			L.Toe			L.MedFoot			V_mid_ASIS			V_R_Knee_JC			V_L_Knee_JC			V_R_Elbow_JC			V_L_Elbow_JC			V_R_Ankle_JC			V_L_Ankle_JC			V_R_Wrist_JC			V_L_Wrist_JC			V_R_ScaTrpz_1stMC_JC			V_R_1stMC_1stPP_JC			V_R_1stPP_1stDP_JC			V_R_LunCap_3rdMC_JC			V_R_3rdMC_3rdPP_JC			V_R_3rdPP_3rdMP_JC			V_R_3rdMP_3rdDP_JC			V_L_ScaTrpz_1stMC_JC			V_L_1stMC_1stPP_JC			V_L_1stPP_1stDP_JC			V_L_LunCap_3rdMC_JC			V_L_3rdMC_3rdPP_JC			V_L_3rdPP_3rdMP_JC			V_L_3rdMP_3rdPP_JC			V_ROOT_JC			V_R_Hip_JC			V_L_Hip_JC			V_R_GlenHum_JC			V_L_GlenHum_JC			V_ForeHead_Ctr			V_Vertex			V_Sagit_Lambdoid_Suture			V_R_FrontoTemp			V_L_FrontoTemporal			V_R_ParietalOccip			V_L_ParietalOcciptal			V_R_Temporal			V_L_Temporal			V_mid_FrontRearHead			V_mid_RLGlenHumCtrs			V_C7_vert			V_C1_vert			V_Mid_Hip			
		X1	Y1	Z1	X2	Y2	Z2	X3	Y3	Z3	X4	Y4	Z4	X5	Y5	Z5	X6	Y6	Z6	X7	Y7	Z7	X8	Y8	Z8	X9	Y9	Z9	X10	Y10	Z10	X11	Y11	Z11	X12	Y12	Z12	X13	Y13	Z13	X14	Y14	Z14	X15	Y15	Z15	X16	Y16	Z16	X17	Y17	Z17	X18	Y18	Z18	X19	Y19	Z19	X20	Y20	Z20	X21	Y21	Z21	X22	Y22	Z22	X23	Y23	Z23	X24	Y24	Z24	X25	Y25	Z25	X26	Y26	Z26	X27	Y27	Z27	X28	Y28	Z28	X29	Y29	Z29	X30	Y30	Z30	X31	Y31	Z31	X32	Y32	Z32	X33	Y33	Z33	X34	Y34	Z34	X35	Y35	Z35	X36	Y36	Z36	X37	Y37	Z37	X38	Y38	Z38	X39	Y39	Z39	X40	Y40	Z40	X41	Y41	Z41	X42	Y42	Z42	X43	Y43	Z43	X44	Y44	Z44	X45	Y45	Z45	X46	Y46	Z46	X47	Y47	Z47	X48	Y48	Z48	X49	Y49	Z49	X50	Y50	Z50	X51	Y51	Z51	X52	Y52	Z52	X53	Y53	Z53	X54	Y54	Z54	X55	Y55	Z55	X56	Y56	Z56	X57	Y57	Z57	X58	Y58	Z58	X59	Y59	Z59	X60	Y60	Z60	

449	3.733	1299.94482	-11.91166	1803.61182	1400.69800	-6.81541	1690.28186	1173.64795	-11.71353	1703.97131	1357.06616	-11.07901	1524.08081	1161.92334	-11.21268	1568.16455	1258.21460	-127.72906	1476.38708	1272.49402	98.30307	1475.10010	1215.35559	-215.62459	1471.13574	1206.53418	196.94153	1482.60400	1109.49121	-98.23301	1485.61072	1112.69092	72.22162	1485.83228	1060.55310	-108.52826	1398.14294	1159.99609	-276.46631	1298.28406	1116.67053	-294.22208	1148.88623	1099.96033	-206.74352	1130.75085	1195.56531	-250.95335	1026.36890	1152.80432	-294.45917	929.44983	1214.55078	-236.43983	892.60156	1203.18384	-276.92740	846.43176	1220.61340	-231.99301	857.19012	1252.90405	-204.53587	808.65875	1286.92004	-204.11440	778.27142	1238.45435	-285.53580	773.88800	1249.94739	-246.97206	718.23792	1236.73853	-202.73412	694.28680	1182.86707	259.59512	1333.68860	1167.26208	303.07544	1156.19006	1120.98511	236.62489	1140.78198	1237.72083	269.93488	1056.43286	1192.28613	291.10361	963.61505	1262.37512	234.40512	918.21393	1257.24609	267.50739	860.20184	1272.68347	219.49254	854.22040	1270.26440	183.69656	805.18213	1277.80701	188.61353	744.02930	1278.29456	279.54160	786.08173	1267.45618	259.81503	729.19586	1245.88989	240.54900	686.36346	1069.59412	-0.53242	1092.06958	1157.16333	-194.71332	1032.81384	1179.91406	178.71362	1032.84265	1227.77185	-175.60852	623.79590	1313.87622	-107.45700	536.81671	1240.92114	-158.30562	490.92542	1250.82959	-40.84220	488.90457	1147.15906	-112.37005	334.33289	912.64075	-132.74962	193.53639	957.40234	-38.30233	191.92278	858.24890	-74.85092	219.62637	1008.11108	-79.39703	60.40174	990.04907	-49.28489	113.46620	1271.81592	147.52087	652.27441	1314.60754	118.46287	512.25360	1311.91174	2.69695	518.87793	1323.92554	57.25169	315.14978	1224.28357	67.68336	70.71174	1257.59888	-23.47587	114.16557	1173.73633	5.37817	59.33881	1411.14429	31.02422	51.27361	1347.43945	-2.70745	76.68958																																																																																																																															
450	3.742	1305.25598	-11.36413	1803.00476	1406.83582	-6.14469	1690.69751	1180.48682	-9.94401	1704.01074	1362.46643	-9.64729	1525.12646	1167.86780	-7.37215	1569.42224	1263.69800	-127.05264	1476.13318	1278.24731	99.73115	1475.14185	1221.37451	-214.48148	1472.09131	1213.77209	196.62300	1483.19861	1115.02075	-95.94472	1485.49036	1119.38721	73.79913	1486.50952	1066.93579	-106.15355	1398.60449	1165.23608	-276.72150	1299.68823	1119.22510	-295.63397	1148.87720	1104.15723	-204.85928	1132.95459	1200.25598	-249.46068	1026.68762	1156.04089	-294.34012	930.53180	1217.10840	-235.94206	893.38892	1207.69836	-276.94608	847.37903	1224.55518	-230.53358	857.87250	1257.61633	-203.63443	809.44153	1291.48987	-203.97881	779.40594	1243.16650	-284.78659	774.19006	1254.93701	-246.75232	719.24585	1239.61023	-202.75206	693.99640	1190.31714	259.98022	1333.29492	1173.98169	303.99228	1156.28235	1127.54065	239.20737	1141.11877	1246.01282	270.44656	1056.42737	1201.07544	292.85022	964.62207	1270.46387	235.63510	919.25311	1264.56531	266.81021	861.34387	1282.04358	219.84613	855.44458	1279.62036	183.02730	806.66711	1288.98328	188.72270	746.09113	1287.80688	280.10953	786.92554	1277.84851	260.63654	730.01721	1255.43640	239.29227	687.08173	1075.38770	0.74502	1092.31750	1161.32153	-193.86070	1032.14197	1187.20996	180.40791	1033.19104	1238.90161	-176.55031	624.23645	1327.08032	-109.30588	539.52014	1253.99377	-159.39479	492.33151	1268.28223	-42.85287	490.84357	1158.90588	-112.28729	337.05771	923.89807	-134.84428	199.45081	967.31940	-40.39827	196.44806	868.50800	-77.43840	225.90190	1019.17657	-80.51904	62.36470	999.33118	-50.20444	118.93521	1274.50391	149.09546	652.36035	1316.10596	118.68205	511.97998	1313.46338	3.33864	518.19769	1325.68030	56.74731	314.66959	1223.76587	68.80264	70.81784	1257.31836	-23.64261	114.19106	1173.69946	5.66506	59.39480	1411.34033	31.15856	51.15171	1347.62109	-2.38183	76.83974																																																																																																																															
451	3.750	1310.67261	-11.11711	1803.70081	1412.81189	-5.46824	1691.51563	1186.56726	-10.48031	1703.79980	1368.88953	-8.60234	1525.96851	1174.09778	-10.13810	1569.63623	1269.80298	-127.05043	1476.67102	1284.72522	100.15695	1474.95227	1226.57861	-214.56610	1471.77881	1220.91174	197.27278	1483.45972	1120.76331	-97.10155	1486.06433	1126.13940	75.71770	1486.64758	1072.38733	-106.08402	1399.31287	1169.94849	-275.29889	1299.72144	1124.17993	-294.10648	1149.67847	1110.18616	-204.84250	1132.33301	1203.71204	-249.30902	1027.38220	1160.17188	-294.20218	930.49750	1220.56140	-235.81210	894.39917	1211.20410	-275.58426	847.22168	1229.18127	-230.73523	858.87830	1262.46143	-202.95206	811.07343	1296.09314	-202.49992	779.42816	1247.97913	-283.63470	775.51575	1258.68701	-245.56471	719.94360	1244.79065	-202.52779	695.04865	1197.48718	261.55688	1334.04407	1181.81494	305.78296	1157.02917	1136.93689	239.75793	1140.33167	1253.76843	271.50287	1057.56238	1209.13892	292.30243	963.83752	1278.43250	235.80077	921.03674	1273.81897	267.54895	861.33362	1289.41211	219.45189	856.55688	1289.55383	184.15088	808.48352	1296.21545	186.04991	747.09778	1297.02332	280.85886	787.87329	1287.53955	260.58609	731.02625	1266.09814	240.42374	688.16412	1080.58459	0.48427	1091.69006	1167.63379	-194.25568	1032.30408	1190.73169	180.04297	1033.48218	1250.59680	-176.87009	625.39435	1339.18115	-110.50529	541.59241	1267.48022	-160.23537	494.03110	1281.73340	-42.89611	491.95084	1171.71191	-113.46846	339.84088	935.03760	-135.85315	204.76219	976.03125	-41.38305	201.51872	879.56158	-77.98592	230.83086	1032.22461	-82.14400	65.29871	1009.67523	-50.75254	123.34021	1277.12122	149.03850	652.61530	1317.43774	118.97886	511.28656	1316.59424	4.39960	518.19263	1327.41443	58.10241	314.62427	1224.20837	68.47908	70.04779	1257.52637	-23.49407	114.05132	1173.68713	5.72070	59.44448	1411.23743	31.60681	51.26724	1347.03735	-2.31097	76.78906																																																																																																																															
452	3.758	1317.88855	-10.94432	1804.08618	1418.65979	-5.24735	1691.71997	1192.00061	-8.08250	1704.98486	1374.96692	-9.45018	1525.62976	1180.19995	-9.05117	1569.94092	1275.13879	-126.23669	1476.72888	1290.67480	99.57721	1475.76477	1231.76624	-213.70268	1472.46106	1226.46985	197.29494	1483.10767	1127.10229	-95.45208	1487.29102	1131.54846	74.42210	1487.50000	1077.44482	-104.26834	1399.39856	1173.24854	-274.89148	1300.57751	1128.69067	-294.32254	1150.18408	1113.83813	-204.95209	1133.30115	1208.70068	-247.73209	1027.82275	1165.00195	-293.12820	931.10284	1225.58423	-234.42400	894.69525	1215.97119	-275.48679	847.88019	1233.97314	-229.28639	859.57373	1266.22412	-202.73889	811.54547	1300.46252	-203.09967	780.99127	1252.28381	-282.72037	775.57483	1263.02441	-245.56425	720.04657	1249.38367	-201.15559	696.39441	1205.52136	262.93045	1334.74268	1190.25281	307.69147	1157.26624	1142.52637	241.61746	1140.51318	1261.66406	272.74292	1058.06812	1217.84070	292.62964	965.15857	1287.72961	236.25833	921.23889	1281.80762	268.07797	862.55890	1300.14551	220.25682	858.61414	1297.01221	183.88310	808.89154	1304.42273	187.43787	748.32721	1307.46265	280.21231	789.73291	1297.55908	259.96121	732.09100	1275.54663	239.64395	688.71973	1085.59583	1.29733	1091.22754	1170.91357	-193.69730	1032.25354	1196.31116	181.61070	1034.21716	1261.25562	-177.53522	626.45941	1352.19080	-110.39471	542.47241	1280.00391	-161.46130	495.66916	1293.01770	-42.55487	494.51456	1182.77722	-113.43217	341.27240	945.72876	-135.81392	208.34505	987.36139	-41.90879	204.24901	890.76685	-79.71442	235.02667	1044.47754	-85.32613	69.51962	1020.81403	-52.75145	126.90285	1280.52063	150.23961	652.37170	1319.22583	119.74504	510.65900	1318.95837	5.81542	517.89270	1327.19299	59.47160	313.78909	1224.20837	68.47908	70.04779	1257.34790	-23.48636	114.07272	1173.47961	5.95721	59.64071	1410.43213	32.23561	51.30410	1347.19507	-1.77420	76.81251																																																																																																																															
